<mxfile host="drawio-plugin" modified="2024-06-12T18:11:56.858Z" agent="5.0 (Macintosh; Intel Mac OS X 10_15_7) AppleWebKit/537.36 (KHTML, like Gecko) Chrome/104.0.5112.102 Safari/537.36" version="20.5.3" etag="E89VB-hyo9XrLhUV_E3R" type="embed"><diagram id="Rv1nrQd7Ri0_tH9dW175" name="Page-1"><mxGraphModel dx="1640" dy="796" grid="1" gridSize="10" guides="1" tooltips="1" connect="1" arrows="1" fold="1" page="1" pageScale="1" pageWidth="850" pageHeight="1100" math="0" shadow="0"><root><mxCell id="0"/><mxCell id="1" parent="0"/><mxCell id="2" value="" style="rounded=1;whiteSpace=wrap;html=1;arcSize=19;" vertex="1" parent="1"><mxGeometry x="-280" y="310" width="510" height="350" as="geometry"/></mxCell><mxCell id="3" value="" style="rounded=1;whiteSpace=wrap;html=1;" vertex="1" parent="1"><mxGeometry x="250" y="310" width="620" height="390" as="geometry"/></mxCell><mxCell id="4" value="&lt;div&gt;&lt;div&gt;PUT/api/graphs&lt;/div&gt;&lt;/div&gt;" style="endArrow=classic;html=1;rounded=0;fillColor=#d5e8d4;strokeColor=#82b366;strokeWidth=3;entryX=0;entryY=0.5;entryDx=0;entryDy=0;exitX=1.003;exitY=0.59;exitDx=0;exitDy=0;exitPerimeter=0;" edge="1" parent="1" target="7"><mxGeometry x="0.1443" width="50" height="50" relative="1" as="geometry"><mxPoint x="-339.6399999999999" y="511.8499999999999" as="sourcePoint"/><mxPoint x="-90" y="511.39999999999975" as="targetPoint"/><mxPoint as="offset"/></mxGeometry></mxCell><mxCell id="5" style="edgeStyle=orthogonalEdgeStyle;rounded=0;orthogonalLoop=1;jettySize=auto;html=1;fontFamily=Helvetica;fontSize=12;fontColor=default;fillColor=#d5e8d4;strokeColor=#82b366;strokeWidth=3;startArrow=classic;startFill=1;exitX=1;exitY=0.5;exitDx=0;exitDy=0;entryX=0;entryY=0.5;entryDx=0;entryDy=0;" edge="1" parent="1" source="7" target="19"><mxGeometry relative="1" as="geometry"><Array as="points"/><mxPoint x="30" y="513" as="sourcePoint"/><mxPoint x="70" y="510" as="targetPoint"/></mxGeometry></mxCell><mxCell id="6" style="edgeStyle=orthogonalEdgeStyle;rounded=0;orthogonalLoop=1;jettySize=auto;html=1;fontFamily=Helvetica;fontSize=12;fontColor=default;fillColor=#ffe6cc;strokeColor=#d79b00;strokeWidth=3;entryX=0.022;entryY=0.866;entryDx=0;entryDy=0;entryPerimeter=0;startArrow=classic;startFill=1;exitX=1.001;exitY=0.705;exitDx=0;exitDy=0;exitPerimeter=0;" edge="1" parent="1" source="7" target="19"><mxGeometry relative="1" as="geometry"><Array as="points"><mxPoint x="40" y="539"/><mxPoint x="70" y="539"/></Array></mxGeometry></mxCell><mxCell id="7" value="API Controller" style="rounded=1;whiteSpace=wrap;html=1;fillColor=#f5f5f5;strokeColor=#666666;fontColor=#333333;" vertex="1" parent="1"><mxGeometry x="-110" y="440" width="120" height="140" as="geometry"/></mxCell><mxCell id="8" style="edgeStyle=orthogonalEdgeStyle;rounded=0;orthogonalLoop=1;jettySize=auto;html=1;fontFamily=Helvetica;fontSize=12;fontColor=default;exitX=0.983;exitY=0.471;exitDx=0;exitDy=0;exitPerimeter=0;fillColor=#dae8fc;strokeColor=#6c8ebf;strokeWidth=3;" edge="1" parent="1" source="12"><mxGeometry relative="1" as="geometry"><mxPoint x="-336.75999999999976" y="479.37999999999977" as="sourcePoint"/><mxPoint x="-110" y="480" as="targetPoint"/></mxGeometry></mxCell><mxCell id="9" value="&lt;div style=&quot;font-size: 11px;&quot;&gt;POST/api/update-graph&lt;/div&gt;" style="edgeLabel;html=1;align=center;verticalAlign=middle;resizable=0;points=[];rounded=1;strokeColor=default;fontFamily=Helvetica;fontSize=12;fontColor=default;fillColor=default;" connectable="0" vertex="1" parent="8"><mxGeometry x="0.2138" y="-2" relative="1" as="geometry"><mxPoint x="-23" y="-5" as="offset"/></mxGeometry></mxCell><mxCell id="10" style="edgeStyle=orthogonalEdgeStyle;rounded=0;orthogonalLoop=1;jettySize=auto;html=1;fontFamily=Helvetica;fontSize=12;fontColor=default;fillColor=#ffe6cc;strokeColor=#d79b00;strokeWidth=3;entryX=0;entryY=0.75;entryDx=0;entryDy=0;" edge="1" parent="1" target="7"><mxGeometry relative="1" as="geometry"><mxPoint x="-339" y="545.0047058823529" as="sourcePoint"/><mxPoint x="-90" y="546" as="targetPoint"/><Array as="points"/></mxGeometry></mxCell><mxCell id="11" value="&lt;div style=&quot;font-size: 11px;&quot;&gt;PUT/api/watch-graphs&lt;br&gt;&lt;/div&gt;" style="edgeLabel;html=1;align=center;verticalAlign=middle;resizable=0;points=[];rounded=1;strokeColor=default;fontFamily=Helvetica;fontSize=12;fontColor=default;fillColor=default;" connectable="0" vertex="1" parent="10"><mxGeometry x="0.2111" y="-1" relative="1" as="geometry"><mxPoint x="-10" y="-2" as="offset"/></mxGeometry></mxCell><mxCell id="12" value="&lt;u&gt;&lt;b&gt;Provider Backend&lt;/b&gt;&lt;/u&gt;" style="rounded=1;whiteSpace=wrap;html=1;fillColor=#fff2cc;strokeColor=#d6b656;fontColor=#000000;" vertex="1" parent="1"><mxGeometry x="-430" y="340" width="120" height="290" as="geometry"/></mxCell><mxCell id="13" value="" style="endArrow=classic;html=1;rounded=0;fontSize=12;startSize=8;endSize=8;edgeStyle=orthogonalEdgeStyle;strokeWidth=3;fillColor=#f8cecc;strokeColor=#b85450;dashed=1;entryX=0.467;entryY=1.069;entryDx=0;entryDy=0;entryPerimeter=0;exitX=0.5;exitY=1;exitDx=0;exitDy=0;" edge="1" parent="1" source="22" target="15"><mxGeometry width="50" height="50" relative="1" as="geometry"><mxPoint x="560" y="560" as="sourcePoint"/><mxPoint x="-520" y="720" as="targetPoint"/><Array as="points"><mxPoint x="790" y="720"/><mxPoint x="-374" y="720"/></Array></mxGeometry></mxCell><mxCell id="14" value="Callback on Update Graph" style="edgeLabel;html=1;align=center;verticalAlign=middle;resizable=0;points=[];fontSize=12;" connectable="0" vertex="1" parent="13"><mxGeometry x="0.0564" relative="1" as="geometry"><mxPoint x="275" as="offset"/></mxGeometry></mxCell><mxCell id="15" value="Global&lt;div&gt;Webhook&lt;/div&gt;" style="rounded=1;whiteSpace=wrap;html=1;fillColor=#fff2cc;strokeColor=#d6b656;fontColor=#000000;" vertex="1" parent="1"><mxGeometry x="-430" y="630" width="120" height="40" as="geometry"/></mxCell><mxCell id="16" style="edgeStyle=orthogonalEdgeStyle;rounded=0;orthogonalLoop=1;jettySize=auto;html=1;entryX=0;entryY=0.5;entryDx=0;entryDy=0;fontFamily=Helvetica;fontSize=12;fontColor=default;strokeWidth=3;fillColor=#dae8fc;strokeColor=#6c8ebf;exitX=1;exitY=0.75;exitDx=0;exitDy=0;" edge="1" parent="1" source="19" target="28"><mxGeometry relative="1" as="geometry"><Array as="points"><mxPoint x="280" y="525"/><mxPoint x="280" y="495"/></Array></mxGeometry></mxCell><mxCell id="17" style="edgeStyle=orthogonalEdgeStyle;rounded=0;orthogonalLoop=1;jettySize=auto;html=1;entryX=0.254;entryY=1.016;entryDx=0;entryDy=0;fontFamily=Helvetica;fontSize=12;fontColor=default;startArrow=classic;startFill=1;fillColor=#d5e8d4;strokeColor=#82b366;strokeWidth=3;entryPerimeter=0;" edge="1" parent="1" target="50"><mxGeometry relative="1" as="geometry"><mxPoint x="100" y="470" as="sourcePoint"/><mxPoint x="100" y="275" as="targetPoint"/></mxGeometry></mxCell><mxCell id="18" value="Check if in&lt;div&gt;local storage&lt;/div&gt;" style="edgeLabel;html=1;align=center;verticalAlign=middle;resizable=0;points=[];rounded=1;strokeColor=default;fontFamily=Helvetica;fontSize=12;fontColor=default;fillColor=default;" connectable="0" vertex="1" parent="17"><mxGeometry x="-0.1427" y="-1" relative="1" as="geometry"><mxPoint x="-1" y="8" as="offset"/></mxGeometry></mxCell><mxCell id="19" value="Api Service" style="shape=parallelogram;perimeter=parallelogramPerimeter;whiteSpace=wrap;html=1;fixedSize=1;rounded=1;strokeColor=#666666;align=center;verticalAlign=middle;fontFamily=Helvetica;fontSize=12;fillColor=#f5f5f5;fontColor=#333333;" vertex="1" parent="1"><mxGeometry x="60" y="470" width="120" height="80" as="geometry"/></mxCell><mxCell id="20" value="&lt;h1 style=&quot;margin-top: 0px;&quot;&gt;Worker&lt;/h1&gt;&lt;p&gt;BullMQ is used to manage transaction related (on chain) jobs.&lt;/p&gt;" style="text;html=1;whiteSpace=wrap;overflow=hidden;rounded=0;fontFamily=Helvetica;fontSize=12;fontColor=default;" vertex="1" parent="1"><mxGeometry x="280" y="319.75" width="190" height="120" as="geometry"/></mxCell><mxCell id="21" value="&lt;h1 style=&quot;margin-top: 0px;&quot;&gt;&lt;span style=&quot;background-color: initial;&quot;&gt;API&lt;/span&gt;&lt;/h1&gt;&lt;h1 style=&quot;margin-top: 0px; line-height: 20%;&quot;&gt;&lt;span style=&quot;background-color: initial; font-size: 12px; font-weight: normal;&quot;&gt;**RPC jobs: can be executed directly by the service.&lt;/span&gt;&lt;br&gt;&lt;/h1&gt;&lt;p style=&quot;line-height: 20%;&quot;&gt;**Extrinsic jobs: must use the queue.&lt;/p&gt;" style="text;html=1;whiteSpace=wrap;overflow=hidden;rounded=0;fontFamily=Helvetica;fontSize=12;fontColor=default;" vertex="1" parent="1"><mxGeometry x="-250" y="325" width="325" height="100" as="geometry"/></mxCell><mxCell id="22" value="Webhook Publisher" style="rounded=1;whiteSpace=wrap;html=1;strokeColor=#b85450;align=center;verticalAlign=middle;fontFamily=Helvetica;fontSize=12;fillColor=#f8cecc;fontColor=#000000;" vertex="1" parent="1"><mxGeometry x="730" y="615" width="120" height="60" as="geometry"/></mxCell><mxCell id="23" style="edgeStyle=orthogonalEdgeStyle;rounded=0;orthogonalLoop=1;jettySize=auto;html=1;fontFamily=Helvetica;fontSize=12;fontColor=default;strokeWidth=3;fillColor=#f8cecc;strokeColor=#b85450;exitX=0.58;exitY=0.99;exitDx=0;exitDy=0;exitPerimeter=0;" edge="1" parent="1" source="38" target="22"><mxGeometry relative="1" as="geometry"><mxPoint x="820" y="520" as="sourcePoint"/></mxGeometry></mxCell><mxCell id="24" value="Successful Transaction" style="edgeLabel;html=1;align=center;verticalAlign=middle;resizable=0;points=[];" vertex="1" connectable="0" parent="23"><mxGeometry x="-0.2009" y="1" relative="1" as="geometry"><mxPoint x="9" y="17" as="offset"/></mxGeometry></mxCell><mxCell id="25" style="edgeStyle=orthogonalEdgeStyle;rounded=0;orthogonalLoop=1;jettySize=auto;html=1;fontFamily=Helvetica;fontSize=12;fontColor=default;fillColor=#e1d5e7;strokeColor=#9673a6;strokeWidth=3;" edge="1" parent="1" source="28" target="37"><mxGeometry relative="1" as="geometry"><mxPoint x="455.071174377224" y="495.0000000000002" as="targetPoint"/></mxGeometry></mxCell><mxCell id="26" style="edgeStyle=orthogonalEdgeStyle;rounded=0;orthogonalLoop=1;jettySize=auto;html=1;fontFamily=Helvetica;fontSize=12;fontColor=default;startArrow=classic;startFill=1;exitX=0.262;exitY=0.993;exitDx=0;exitDy=0;exitPerimeter=0;fillColor=#e1d5e7;strokeColor=#9673a6;strokeWidth=3;entryX=0.35;entryY=0.02;entryDx=0;entryDy=0;entryPerimeter=0;" edge="1" parent="1" target="36"><mxGeometry relative="1" as="geometry"><mxPoint x="360.0100000000002" y="529.51" as="sourcePoint"/></mxGeometry></mxCell><mxCell id="27" value="&lt;span style=&quot;&quot;&gt;Optional via FLAG&lt;/span&gt;" style="edgeLabel;html=1;align=center;verticalAlign=middle;resizable=0;points=[];rounded=1;strokeColor=default;fontFamily=Helvetica;fontSize=12;fontColor=#F0F0F0;fillColor=default;labelBackgroundColor=default;" connectable="0" vertex="1" parent="26"><mxGeometry x="0.1867" y="-1" relative="1" as="geometry"><mxPoint x="1" y="-12" as="offset"/></mxGeometry></mxCell><mxCell id="28" value="BullMQ Graph&lt;div&gt;Change&lt;br&gt;&lt;div&gt;Processors&lt;/div&gt;&lt;/div&gt;" style="shape=hexagon;perimeter=hexagonPerimeter2;whiteSpace=wrap;html=1;fixedSize=1;rounded=1;strokeColor=#9673a6;align=center;verticalAlign=middle;fontFamily=Helvetica;fontSize=12;fillColor=#e1d5e7;fontColor=#000000;" vertex="1" parent="1"><mxGeometry x="322.5" y="460" width="105" height="70" as="geometry"/></mxCell><mxCell id="29" value="&lt;u&gt;&lt;b&gt;Frequency Chain&lt;/b&gt;&lt;/u&gt;" style="shape=cube;whiteSpace=wrap;html=1;boundedLbl=1;backgroundOutline=1;darkOpacity=0.05;darkOpacity2=0.1;rounded=1;strokeColor=#d6b656;align=center;verticalAlign=middle;fontFamily=Helvetica;fontSize=12;fillColor=#fff2cc;fontColor=#000000;" vertex="1" parent="1"><mxGeometry x="400" y="188" width="180" height="97" as="geometry"/></mxCell><mxCell id="30" value="" style="edgeLabel;html=1;align=center;verticalAlign=middle;resizable=0;points=[];rounded=1;strokeColor=default;fontFamily=Helvetica;fontSize=12;fontColor=default;fillColor=default;" connectable="0" vertex="1" parent="1"><mxGeometry x="425" y="270.0033333333333" as="geometry"/></mxCell><mxCell id="31" value="" style="edgeLabel;html=1;align=center;verticalAlign=middle;resizable=0;points=[];rounded=1;strokeColor=default;fontFamily=Helvetica;fontSize=12;fontColor=default;fillColor=default;" connectable="0" vertex="1" parent="1"><mxGeometry x="539.9247941550984" y="299.98333360124843" as="geometry"/></mxCell><mxCell id="32" style="edgeStyle=orthogonalEdgeStyle;rounded=0;orthogonalLoop=1;jettySize=auto;html=1;fontFamily=Helvetica;fontSize=12;fontColor=default;strokeWidth=3;dashed=1;fillColor=#f8cecc;strokeColor=#b85450;exitX=0.433;exitY=-0.137;exitDx=0;exitDy=0;startArrow=classic;startFill=1;endArrow=classic;endFill=1;exitPerimeter=0;entryX=0.774;entryY=1.006;entryDx=0;entryDy=0;entryPerimeter=0;" edge="1" parent="1" source="40" target="29"><mxGeometry relative="1" as="geometry"><mxPoint x="672.5" y="459.75" as="sourcePoint"/><Array as="points"><mxPoint x="772" y="380"/><mxPoint x="539" y="380"/></Array><mxPoint x="550" y="260" as="targetPoint"/></mxGeometry></mxCell><mxCell id="33" value="Poll given transaction hash" style="edgeLabel;html=1;align=center;verticalAlign=middle;resizable=0;points=[];rounded=1;strokeColor=default;fontFamily=Helvetica;fontSize=12;fontColor=default;fillColor=default;" connectable="0" vertex="1" parent="32"><mxGeometry x="-0.3427" y="1" relative="1" as="geometry"><mxPoint x="-39" y="-1" as="offset"/></mxGeometry></mxCell><mxCell id="34" style="edgeStyle=orthogonalEdgeStyle;rounded=0;orthogonalLoop=1;jettySize=auto;html=1;entryX=0;entryY=0;entryDx=100;entryDy=97;entryPerimeter=0;fontFamily=Helvetica;fontSize=12;fontColor=default;strokeWidth=3;dashed=1;fillColor=#e1d5e7;strokeColor=#9673a6;exitX=0.346;exitY=0.05;exitDx=0;exitDy=0;exitPerimeter=0;startArrow=classic;startFill=1;" edge="1" parent="1" source="39" target="29"><mxGeometry relative="1" as="geometry"><mxPoint x="500.32000000000016" y="460.73350000000005" as="sourcePoint"/><mxPoint x="489.57000000000016" y="224.38099999999997" as="targetPoint"/><Array as="points"/></mxGeometry></mxCell><mxCell id="35" value="Transactions" style="edgeLabel;html=1;align=center;verticalAlign=middle;resizable=0;points=[];rounded=1;strokeColor=default;fontFamily=Helvetica;fontSize=12;fontColor=default;fillColor=default;" connectable="0" vertex="1" parent="34"><mxGeometry x="0.7749" y="3" relative="1" as="geometry"><mxPoint x="-7" y="38" as="offset"/></mxGeometry></mxCell><mxCell id="36" value="Reconnection Processor" style="shape=hexagon;perimeter=hexagonPerimeter2;whiteSpace=wrap;html=1;fixedSize=1;rounded=1;strokeColor=#9673a6;align=center;verticalAlign=middle;fontFamily=Helvetica;fontSize=12;fillColor=#e1d5e7;fontColor=#000000;" vertex="1" parent="1"><mxGeometry x="322.5" y="616" width="105" height="70" as="geometry"/></mxCell><mxCell id="37" value="Graph Publisher" style="rounded=1;whiteSpace=wrap;html=1;strokeColor=#9673a6;align=center;verticalAlign=middle;fontFamily=Helvetica;fontSize=12;fillColor=#e1d5e7;fontColor=#000000;" vertex="1" parent="1"><mxGeometry x="460" y="465" width="120" height="60" as="geometry"/></mxCell><mxCell id="38" value="Graph Notifier" style="rounded=1;whiteSpace=wrap;html=1;strokeColor=#b85450;align=center;verticalAlign=middle;fontFamily=Helvetica;fontSize=12;fillColor=#f8cecc;fontColor=#000000;" vertex="1" parent="1"><mxGeometry x="720" y="465" width="120" height="60" as="geometry"/></mxCell><mxCell id="39" value="Blockchain Service" style="rounded=1;whiteSpace=wrap;html=1;strokeColor=#9673a6;align=center;verticalAlign=middle;fontFamily=Helvetica;fontSize=12;fillColor=#e1d5e7;fontColor=#000000;" vertex="1" parent="1"><mxGeometry x="460" y="435" width="120" height="30" as="geometry"/></mxCell><mxCell id="40" value="Blockchain Service" style="rounded=1;whiteSpace=wrap;html=1;strokeColor=#b85450;align=center;verticalAlign=middle;fontFamily=Helvetica;fontSize=12;fillColor=#f8cecc;fontColor=#000000;" vertex="1" parent="1"><mxGeometry x="720" y="435" width="120" height="30" as="geometry"/></mxCell><mxCell id="41" style="edgeStyle=orthogonalEdgeStyle;rounded=0;orthogonalLoop=1;jettySize=auto;html=1;fontFamily=Helvetica;fontSize=12;fontColor=default;fillColor=#dae8fc;strokeColor=#6c8ebf;strokeWidth=3;startArrow=classic;startFill=1;entryX=0.128;entryY=0.235;entryDx=0;entryDy=0;entryPerimeter=0;exitX=0.987;exitY=0.342;exitDx=0;exitDy=0;exitPerimeter=0;" edge="1" parent="1" source="7" target="19"><mxGeometry relative="1" as="geometry"><Array as="points"><mxPoint x="60" y="488"/></Array><mxPoint x="30" y="489.12" as="sourcePoint"/><mxPoint x="85" y="489.12" as="targetPoint"/></mxGeometry></mxCell><mxCell id="42" style="edgeStyle=orthogonalEdgeStyle;rounded=0;orthogonalLoop=1;jettySize=auto;html=1;entryX=0;entryY=0;entryDx=0;entryDy=77;entryPerimeter=0;fontFamily=Helvetica;fontSize=12;fontColor=default;fillColor=#d5e8d4;strokeColor=#82b366;strokeWidth=3;startArrow=classic;startFill=1;exitX=0.931;exitY=0.417;exitDx=0;exitDy=0;exitPerimeter=0;dashed=1;" edge="1" parent="1" source="19" target="29"><mxGeometry relative="1" as="geometry"><Array as="points"><mxPoint x="210" y="503"/><mxPoint x="210" y="265"/></Array></mxGeometry></mxCell><mxCell id="43" value="If not in Redis,&lt;div&gt;get from chain&lt;/div&gt;" style="edgeLabel;html=1;align=center;verticalAlign=middle;resizable=0;points=[];rounded=1;strokeColor=default;fontFamily=Helvetica;fontSize=12;fontColor=default;fillColor=default;" connectable="0" vertex="1" parent="42"><mxGeometry x="-0.02" y="-2" relative="1" as="geometry"><mxPoint x="68" y="-53" as="offset"/></mxGeometry></mxCell><mxCell id="44" style="edgeStyle=orthogonalEdgeStyle;rounded=0;orthogonalLoop=1;jettySize=auto;html=1;entryX=0.753;entryY=0.973;entryDx=0;entryDy=0;entryPerimeter=0;fontFamily=Helvetica;fontSize=12;fontColor=default;fillColor=#ffe6cc;strokeColor=#d79b00;strokeWidth=3;startArrow=classic;startFill=1;" edge="1" parent="1" target="50"><mxGeometry relative="1" as="geometry"><Array as="points"><mxPoint x="140" y="372"/></Array><mxPoint x="140.23809523809518" y="470" as="sourcePoint"/><mxPoint x="132.48000000000002" y="273" as="targetPoint"/></mxGeometry></mxCell><mxCell id="45" value="Update&amp;nbsp;&lt;div&gt;local storage&lt;/div&gt;" style="edgeLabel;html=1;align=center;verticalAlign=middle;resizable=0;points=[];" vertex="1" connectable="0" parent="44"><mxGeometry x="0.3772" y="3" relative="1" as="geometry"><mxPoint x="13" y="19" as="offset"/></mxGeometry></mxCell><mxCell id="46" style="edgeStyle=orthogonalEdgeStyle;rounded=0;orthogonalLoop=1;jettySize=auto;html=1;fillColor=#e1d5e7;strokeColor=#9673a6;strokeWidth=3;exitX=1;exitY=0.5;exitDx=0;exitDy=0;entryX=0;entryY=0.5;entryDx=0;entryDy=0;" edge="1" parent="1" target="38"><mxGeometry relative="1" as="geometry"><mxPoint x="580" y="494.76" as="sourcePoint"/><mxPoint x="720" y="495.05" as="targetPoint"/><Array as="points"/></mxGeometry></mxCell><mxCell id="47" value="Sends&amp;nbsp;&lt;div&gt;transaction hash&lt;/div&gt;" style="edgeLabel;html=1;align=center;verticalAlign=middle;resizable=0;points=[];" vertex="1" connectable="0" parent="46"><mxGeometry x="-0.0508" relative="1" as="geometry"><mxPoint x="-1" as="offset"/></mxGeometry></mxCell><mxCell id="48" style="edgeStyle=orthogonalEdgeStyle;rounded=0;orthogonalLoop=1;jettySize=auto;html=1;exitX=0.417;exitY=1.006;exitDx=0;exitDy=0;entryX=0.703;entryY=1.031;entryDx=0;entryDy=0;fillColor=#f8cecc;strokeColor=#b85450;strokeWidth=3;exitPerimeter=0;entryPerimeter=0;" edge="1" parent="1" source="38" target="28"><mxGeometry relative="1" as="geometry"><Array as="points"><mxPoint x="770" y="560"/><mxPoint x="396" y="560"/></Array></mxGeometry></mxCell><mxCell id="49" value="Unsuccessful Transaction" style="edgeLabel;html=1;align=center;verticalAlign=middle;resizable=0;points=[];fontColor=#F0F0F0;" vertex="1" connectable="0" parent="48"><mxGeometry x="-0.4348" y="1" relative="1" as="geometry"><mxPoint x="-45" as="offset"/></mxGeometry></mxCell><mxCell id="50" value="Redis&lt;div&gt;Storage&lt;/div&gt;" style="shape=cylinder3;whiteSpace=wrap;html=1;boundedLbl=1;backgroundOutline=1;size=15;fillColor=#fff2cc;strokeColor=#d6b656;fontColor=#000000;" vertex="1" parent="1"><mxGeometry x="80" y="215" width="80" height="70" as="geometry"/></mxCell></root></mxGraphModel></diagram></mxfile>